<svg width="20" height="20" viewBox="0 0 20 20" fill="none" xmlns="http://www.w3.org/2000/svg">
<g clip-path="url(#clip0_72_1640)">
<path d="M14.1665 5H18.3332V6.66667H16.6665V17.5C16.6665 17.721 16.5787 17.933 16.4224 18.0893C16.2661 18.2455 16.0542 18.3333 15.8332 18.3333H4.1665C3.94549 18.3333 3.73353 18.2455 3.57725 18.0893C3.42097 17.933 3.33317 17.721 3.33317 17.5V6.66667H1.6665V5H5.83317V2.5C5.83317 2.27899 5.92097 2.06702 6.07725 1.91074C6.23353 1.75446 6.44549 1.66667 6.6665 1.66667H13.3332C13.5542 1.66667 13.7661 1.75446 13.9224 1.91074C14.0787 2.06702 14.1665 2.27899 14.1665 2.5V5ZM14.9998 6.66667H4.99984V16.6667H14.9998V6.66667ZM7.49984 3.33333V5H12.4998V3.33333H7.49984Z" fill="#AF1F26"/>
</g>
<defs>
<clipPath id="clip0_72_1640">
<rect width="20" height="20" fill="white"/>
</clipPath>
</defs>
</svg>
