<svg width="16" height="18" viewBox="0 0 16 18" fill="none" xmlns="http://www.w3.org/2000/svg">
<path d="M10.5 2.33329H2.16667V15.6666H13.8333V5.66663H10.5V2.33329ZM0.5 1.49329C0.5 1.03663 0.8725 0.666626 1.3325 0.666626H11.3333L15.5 4.83329V16.4941C15.5008 16.6036 15.48 16.7121 15.4388 16.8135C15.3976 16.9149 15.3369 17.0072 15.2601 17.0851C15.1832 17.163 15.0918 17.225 14.991 17.2676C14.8902 17.3102 14.7819 17.3325 14.6725 17.3333H1.3275C1.10865 17.3318 0.899181 17.2442 0.744348 17.0895C0.589515 16.9349 0.501746 16.7255 0.5 16.5066V1.49329ZM7.16667 8.16663V5.66663H8.83333V8.16663H11.3333V9.83329H8.83333V12.3333H7.16667V9.83329H4.66667V8.16663H7.16667Z" fill="#AF1F26"/>
</svg>
