<svg width="28" height="28" viewBox="0 0 28 28" fill="none" xmlns="http://www.w3.org/2000/svg">
    <g clipPath="url(#clip0_95_1200)">
        <path
            d="M12.1667 11.4667H11.9667V11.6667V16.3334V16.5334H12.1667H14.5C15.1719 16.5334 15.8162 16.2665 16.2913 15.7914C16.7664 15.3163 17.0333 14.6719 17.0333 14C17.0333 13.3282 16.7664 12.6838 16.2913 12.2087C15.8162 11.7336 15.1719 11.4667 14.5 11.4667H12.1667ZM18.2 4.66671V4.46671H18H6.33333H6.13333V4.66671V23.3334V23.5334H6.33333H22.6667H22.8667V23.3334V9.33337V9.13337H22.6667H18.2V4.66671ZM24.8 24.4919L24.8 24.4933C24.8009 24.6202 24.7768 24.7461 24.729 24.8637C24.6813 24.9813 24.6108 25.0884 24.5217 25.1788C24.4325 25.2692 24.3265 25.3411 24.2095 25.3905C24.0928 25.4398 23.9676 25.4657 23.8409 25.4667H5.15912C4.90553 25.4647 4.66286 25.3632 4.48344 25.1839C4.30401 25.0047 4.20222 24.7621 4.2 24.5085V3.49071C4.2 2.96314 4.63065 2.53337 5.1655 2.53337H19.0838L24.8 8.24955L24.8 24.4919ZM14.5 18.4667H10.0333V9.53337H14.5C15.6846 9.53337 16.8207 10.004 17.6584 10.8416C18.4961 11.6793 18.9667 12.8154 18.9667 14C18.9667 15.1847 18.4961 16.3208 17.6584 17.1585C16.8207 17.9961 15.6846 18.4667 14.5 18.4667Z"
            fill="#AF1F26" stroke="white" stroke-width="0.4" />
    </g>
    <defs>
        <clipPath id="clip0_95_1200">
            <rect width="28" height="28" fill="white" />
        </clipPath>
    </defs>
</svg>