<svg width="20" height="18" viewBox="0 0 20 18" fill="none" xmlns="http://www.w3.org/2000/svg">
<path opacity="0.4" d="M18.15 4.238V3.90231L17.8999 4.12626L10.0713 11.1373L2.09924 4.10352L1.85 3.88361V4.216V16V16.15H2H18H18.15V16V4.238ZM2.511 1.85H2.1143L2.41175 2.11247L9.96175 8.77447L10.0617 8.86269L10.1611 8.77375L17.6021 2.11175L17.8944 1.85H17.502H2.511ZM1 0.15H19C19.2254 0.15 19.4416 0.239553 19.601 0.398959C19.7604 0.558365 19.85 0.774566 19.85 1V17C19.85 17.2254 19.7604 17.4416 19.601 17.601C19.4416 17.7604 19.2254 17.85 19 17.85H1C0.774566 17.85 0.558365 17.7604 0.398959 17.601C0.239553 17.4416 0.15 17.2254 0.15 17V1C0.15 0.774566 0.239553 0.558365 0.398959 0.398959C0.558365 0.239553 0.774566 0.15 1 0.15Z" fill="#040707" stroke="white" stroke-width="0.3"/>
</svg>
