<svg width="18" height="20" viewBox="0 0 18 20" fill="none" xmlns="http://www.w3.org/2000/svg">
<path d="M7 7.8H6.8V8V12V12.2H7H9C9.58348 12.2 10.1431 11.9682 10.5556 11.5556C10.9682 11.1431 11.2 10.5835 11.2 10C11.2 9.41652 10.9682 8.85695 10.5556 8.44437C10.1431 8.03179 9.58348 7.8 9 7.8H7ZM12.2 2V1.8H12H2H1.8V2V18V18.2H2H16H16.2V18V6V5.8H16H12.2V2ZM17.8 18.993L17.8 18.9944C17.8007 19.0995 17.7808 19.2036 17.7413 19.301C17.7017 19.3983 17.6434 19.4869 17.5697 19.5617C17.4959 19.6365 17.4081 19.6961 17.3113 19.737C17.2148 19.7778 17.1112 19.7992 17.0064 19.8H0.993624C0.783806 19.7983 0.583027 19.7143 0.434567 19.566C0.286106 19.4177 0.201871 19.217 0.2 19.0072V0.992C0.2 0.555763 0.556146 0.2 0.999 0.2H12.9172L17.8 5.08284L17.8 18.993ZM9 13.8H5.2V6.2H9C10.0078 6.2 10.9744 6.60036 11.687 7.31299C12.3996 8.02563 12.8 8.99218 12.8 10C12.8 11.0078 12.3996 11.9744 11.687 12.687C10.9744 13.3996 10.0078 13.8 9 13.8Z" fill="#040707" stroke="white" stroke-width="0.4"/>
</svg>
