<svg width="16" height="18" viewBox="0 0 16 18" fill="none" xmlns="http://www.w3.org/2000/svg">
<path d="M3.83333 3.99996V1.49996C3.83333 1.27895 3.92113 1.06698 4.07741 0.910704C4.23369 0.754423 4.44565 0.666626 4.66667 0.666626H14.6667C14.8877 0.666626 15.0996 0.754423 15.2559 0.910704C15.4122 1.06698 15.5 1.27895 15.5 1.49996V13.1666C15.5 13.3876 15.4122 13.5996 15.2559 13.7559C15.0996 13.9122 14.8877 14 14.6667 14H12.1667V16.5C12.1667 16.96 11.7917 17.3333 11.3275 17.3333H1.33917C1.22927 17.334 1.12033 17.3129 1.0186 17.2713C0.916873 17.2297 0.824361 17.1685 0.746382 17.091C0.668403 17.0136 0.606494 16.9215 0.564212 16.8201C0.52193 16.7186 0.500108 16.6099 0.5 16.5L0.5025 4.83329C0.5025 4.37329 0.8775 3.99996 1.34167 3.99996H3.83333ZM5.5 3.99996H12.1667V12.3333H13.8333V2.33329H5.5V3.99996ZM3.83333 8.16663V9.83329H8.83333V8.16663H3.83333ZM3.83333 11.5V13.1666H8.83333V11.5H3.83333Z" fill="white"/>
</svg>
