<svg width="18" height="20" viewBox="0 0 18 20" fill="none" xmlns="http://www.w3.org/2000/svg">
<path opacity="0.4" d="M15.85 8V8.15H16H17C17.2254 8.15 17.4416 8.23955 17.601 8.39896C17.7604 8.55836 17.85 8.77457 17.85 9V19C17.85 19.2254 17.7604 19.4416 17.601 19.601C17.4416 19.7604 17.2254 19.85 17 19.85H1C0.774566 19.85 0.558365 19.7604 0.398959 19.601C0.239553 19.4416 0.15 19.2254 0.15 19V9C0.15 8.77457 0.239553 8.55836 0.398959 8.39896C0.558365 8.23955 0.774566 8.15 1 8.15H2H2.15V8V7C2.15 6.10044 2.32718 5.2097 2.67143 4.37862C3.01567 3.54754 3.52024 2.7924 4.15632 2.15632C4.7924 1.52024 5.54754 1.01567 6.37862 0.671425C7.2097 0.32718 8.10044 0.15 9 0.15C9.89956 0.15 10.7903 0.32718 11.6214 0.671425C12.4525 1.01567 13.2076 1.52024 13.8437 2.15632C14.4798 2.7924 14.9843 3.54754 15.3286 4.37862C15.6728 5.2097 15.85 6.10044 15.85 7V8ZM2 9.85H1.85V10V18V18.15H2H16H16.15V18V10V9.85H16H2ZM14 8.15H14.15V8V7C14.15 5.63414 13.6074 4.32421 12.6416 3.3584C11.6758 2.39259 10.3659 1.85 9 1.85C7.63414 1.85 6.32421 2.39259 5.3584 3.3584C4.39259 4.32421 3.85 5.63414 3.85 7V8V8.15H4H14ZM9.85 12.15V15.85H8.15V12.15H9.85Z" fill="#040707" stroke="white" stroke-width="0.3"/>
</svg>
