<svg width="30" height="30" viewBox="0 0 30 30" fill="none" xmlns="http://www.w3.org/2000/svg">
    <g clipPath="url(#clip0_95_1226)">
        <path
            d="M22.7 26H7.3C6.42479 26 5.58542 25.6523 4.96655 25.0335C4.34768 24.4146 4 23.5752 4 22.7V5.1C4 4.80826 4.11589 4.52847 4.32218 4.32218C4.52847 4.11589 4.80826 4 5.1 4H20.5C20.7917 4 21.0715 4.11589 21.2778 4.32218C21.4841 4.52847 21.6 4.80826 21.6 5.1V18.3H26V22.7C26 23.5752 25.6523 24.4146 25.0335 25.0335C24.4146 25.6523 23.5752 26 22.7 26ZM21.6 20.5V22.7C21.6 22.9917 21.7159 23.2715 21.9222 23.4778C22.1285 23.6841 22.4083 23.8 22.7 23.8C22.9917 23.8 23.2715 23.6841 23.4778 23.4778C23.6841 23.2715 23.8 22.9917 23.8 22.7V20.5H21.6ZM8.4 9.5V11.7H17.2V9.5H8.4ZM8.4 13.9V16.1H17.2V13.9H8.4ZM8.4 18.3V20.5H13.9V18.3H8.4Z"
            fill="#E2A9AC" />
    </g>
    <defs>
        <clipPath id="clip0_95_1226">
            <rect width="30" height="30" fill="white" />
        </clipPath>
    </defs>
</svg>