<svg width="20" height="20" viewBox="0 0 20 20" fill="none" xmlns="http://www.w3.org/2000/svg">
    <g clipPath="url(#clip0_95_1190)">
        <path
            d="M16.6667 18.3334H15V16.6667C15 16.0037 14.7366 15.3678 14.2678 14.8989C13.7989 14.4301 13.163 14.1667 12.5 14.1667H7.49999C6.83695 14.1667 6.20107 14.4301 5.73223 14.8989C5.26339 15.3678 4.99999 16.0037 4.99999 16.6667V18.3334H3.33333V16.6667C3.33333 15.5616 3.77232 14.5018 4.55372 13.7204C5.33512 12.939 6.39493 12.5 7.49999 12.5H12.5C13.6051 12.5 14.6649 12.939 15.4463 13.7204C16.2277 14.5018 16.6667 15.5616 16.6667 16.6667V18.3334ZM9.99999 10.8334C9.34339 10.8334 8.69321 10.704 8.08658 10.4528C7.47995 10.2015 6.92875 9.8332 6.46446 9.36891C6.00017 8.90461 5.63187 8.35342 5.3806 7.74679C5.12932 7.14016 4.99999 6.48998 4.99999 5.83337C4.99999 5.17676 5.12932 4.52658 5.3806 3.91996C5.63187 3.31333 6.00017 2.76213 6.46446 2.29784C6.92875 1.83355 7.47995 1.46525 8.08658 1.21398C8.69321 0.962703 9.34339 0.833374 9.99999 0.833374C11.3261 0.833374 12.5978 1.36016 13.5355 2.29784C14.4732 3.23552 15 4.50729 15 5.83337C15 7.15946 14.4732 8.43123 13.5355 9.36891C12.5978 10.3066 11.3261 10.8334 9.99999 10.8334ZM9.99999 9.16671C10.884 9.16671 11.7319 8.81552 12.357 8.1904C12.9821 7.56528 13.3333 6.71743 13.3333 5.83337C13.3333 4.94932 12.9821 4.10147 12.357 3.47635C11.7319 2.85123 10.884 2.50004 9.99999 2.50004C9.11594 2.50004 8.26809 2.85123 7.64297 3.47635C7.01785 4.10147 6.66666 4.94932 6.66666 5.83337C6.66666 6.71743 7.01785 7.56528 7.64297 8.1904C8.26809 8.81552 9.11594 9.16671 9.99999 9.16671Z"
            fill="#040707" />
    </g>
    <defs>
        <clipPath id="clip0_95_1190">
            <rect width="20" height="20" fill="white" />
        </clipPath>
    </defs>
</svg>