<svg width="18" height="18" viewBox="0 0 18 18" fill="none" xmlns="http://www.w3.org/2000/svg">
<path d="M0.776659 10.3583C0.627181 9.45895 0.627181 8.54106 0.776659 7.64167C1.69499 7.66334 2.51999 7.22334 2.84083 6.44918C3.16166 5.67418 2.88916 4.77918 2.22416 4.14668C2.7545 3.40442 3.4038 2.75484 4.14583 2.22418C4.77916 2.88918 5.67416 3.16168 6.44916 2.84084C7.22416 2.52001 7.66333 1.69418 7.64083 0.776676C8.54076 0.627013 9.45923 0.627013 10.3592 0.776676C10.3367 1.69501 10.7767 2.52001 11.5508 2.84084C12.3258 3.16168 13.2208 2.88918 13.8533 2.22418C14.5956 2.75452 15.2452 3.40381 15.7758 4.14584C15.1108 4.77918 14.8383 5.67418 15.1592 6.44918C15.48 7.22418 16.3058 7.66334 17.2233 7.64084C17.373 8.54077 17.373 9.45924 17.2233 10.3592C16.305 10.3367 15.48 10.7767 15.1592 11.5508C14.8383 12.3258 15.1108 13.2208 15.7758 13.8533C15.2455 14.5956 14.5962 15.2452 13.8542 15.7758C13.2208 15.1108 12.3258 14.8383 11.5508 15.1592C10.7758 15.48 10.3367 16.3058 10.3592 17.2233C9.45923 17.373 8.54076 17.373 7.64083 17.2233C7.66333 16.305 7.22333 15.48 6.44916 15.1592C5.67416 14.8383 4.77916 15.1108 4.14666 15.7758C3.4044 15.2455 2.75483 14.5962 2.22416 13.8542C2.88916 13.2208 3.16166 12.3258 2.84083 11.5508C2.51999 10.7758 1.69416 10.3367 0.776659 10.3592V10.3583ZM8.99999 11.5C9.66303 11.5 10.2989 11.2366 10.7678 10.7678C11.2366 10.2989 11.5 9.66305 11.5 9.00001C11.5 8.33697 11.2366 7.70108 10.7678 7.23224C10.2989 6.7634 9.66303 6.50001 8.99999 6.50001C8.33695 6.50001 7.70107 6.7634 7.23223 7.23224C6.76338 7.70108 6.49999 8.33697 6.49999 9.00001C6.49999 9.66305 6.76338 10.2989 7.23223 10.7678C7.70107 11.2366 8.33695 11.5 8.99999 11.5Z" fill="white"/>
</svg>
